<svg width="40" height="41" viewBox="0 0 40 41" fill="none" xmlns="http://www.w3.org/2000/svg">
<g clip-path="url(#clip0_39_112)">
<path d="M27 20.52L18 11.52L15.2 14.37L21.35 20.52L15.2 26.67L18 29.52L27 20.52ZM40 20.52C40 23.2867 39.4747 25.8867 38.424 28.32C37.3747 30.7534 35.95 32.87 34.15 34.67C32.35 36.47 30.2333 37.8947 27.8 38.944C25.3667 39.9947 22.7667 40.52 20 40.52C17.2333 40.52 14.6333 39.9947 12.2 38.944C9.76667 37.8947 7.65 36.47 5.85 34.67C4.05 32.87 2.62467 30.7534 1.574 28.32C0.524667 25.8867 0 23.2867 0 20.52C0 17.7534 0.524667 15.1534 1.574 12.72C2.62467 10.2867 4.05 8.17002 5.85 6.37002C7.65 4.57002 9.76667 3.14535 12.2 2.09602C14.6333 1.04535 17.2333 0.52002 20 0.52002C22.7667 0.52002 25.3667 1.04535 27.8 2.09602C30.2333 3.14535 32.35 4.57002 34.15 6.37002C35.95 8.17002 37.3747 10.2867 38.424 12.72C39.4747 15.1534 40 17.7534 40 20.52Z" fill="#FBBF24"/>
</g>
<defs>
<clipPath id="clip0_39_112">
<rect width="40" height="40" fill="white" transform="matrix(0 -1 1 0 0 40.52)"/>
</clipPath>
</defs>
</svg>
