<svg width="102" height="101" viewBox="0 0 102 101" fill="none" xmlns="http://www.w3.org/2000/svg">
<path fill-rule="evenodd" clip-rule="evenodd" d="M19.3355 9.53613C19.3355 7.327 21.1264 5.53613 23.3355 5.53613H83.6001C85.8092 5.53613 87.6001 7.32699 87.6001 9.53613V20.3551H95.2625C98.0239 20.3551 100.262 22.5936 100.262 25.3551V77.8836C100.262 80.645 98.0239 82.8836 95.2625 82.8836L64.65 82.8835V91.8942H64.7C68.3118 91.8942 71.2398 94.8221 71.2398 98.4339C71.2398 98.9159 71.2034 99.3894 71.1332 99.8519H36.523C36.4529 99.3894 36.4165 98.9159 36.4165 98.4339C36.4165 94.8221 39.3444 91.8942 42.9562 91.8942H42.0241V82.8835L11.4102 82.8836C8.64874 82.8836 6.41016 80.645 6.41016 77.8836V25.3551C6.41016 22.5936 8.64873 20.3551 11.4102 20.3551H19.3355V9.53613Z" fill="#F9CB61"/>
<path d="M87.6001 20.3551H86.6001V21.3551H87.6001V20.3551ZM95.2625 82.8836V83.8836V82.8836ZM64.65 82.8835V81.8835H63.65V82.8835H64.65ZM64.65 91.8942H63.65V92.8942H64.65V91.8942ZM71.1332 99.8519V100.852H71.993L72.1219 100.002L71.1332 99.8519ZM36.523 99.8519L35.5343 100.002L35.6633 100.852H36.523V99.8519ZM42.0241 91.8942H41.0241V92.8942H42.0241V91.8942ZM42.0241 82.8835H43.0241V81.8835H42.0241V82.8835ZM11.4102 82.8836V83.8836H11.4102L11.4102 82.8836ZM19.3355 20.3551V21.3551H20.3355V20.3551H19.3355ZM23.3355 4.53613C20.5741 4.53613 18.3355 6.77471 18.3355 9.53613H20.3355C20.3355 7.87928 21.6787 6.53613 23.3355 6.53613V4.53613ZM83.6001 4.53613H23.3355V6.53613H83.6001V4.53613ZM88.6001 9.53613C88.6001 6.77471 86.3615 4.53613 83.6001 4.53613V6.53613C85.2569 6.53613 86.6001 7.87928 86.6001 9.53613H88.6001ZM88.6001 20.3551V9.53613H86.6001V20.3551H88.6001ZM87.6001 21.3551H95.2625V19.3551H87.6001V21.3551ZM95.2625 21.3551C97.4716 21.3551 99.2625 23.1459 99.2625 25.3551H101.262C101.262 22.0414 98.5762 19.3551 95.2625 19.3551V21.3551ZM99.2625 25.3551V77.8836H101.262V25.3551H99.2625ZM99.2625 77.8836C99.2625 80.0927 97.4716 81.8836 95.2625 81.8836V83.8836C98.5762 83.8836 101.262 81.1973 101.262 77.8836H99.2625ZM95.2625 81.8836L64.65 81.8835V83.8835L95.2625 83.8836V81.8836ZM63.65 82.8835V91.8942H65.65V82.8835H63.65ZM64.65 92.8942H64.7V90.8942H64.65V92.8942ZM64.7 92.8942C67.7595 92.8942 70.2398 95.3744 70.2398 98.4339H72.2398C72.2398 94.2698 68.8641 90.8942 64.7 90.8942V92.8942ZM70.2398 98.4339C70.2398 98.8656 70.2072 99.2889 70.1446 99.7019L72.1219 100.002C72.1996 99.49 72.2398 98.9663 72.2398 98.4339H70.2398ZM71.1332 98.8519H36.523V100.852H71.1332V98.8519ZM37.5117 99.7019C37.4491 99.2889 37.4165 98.8656 37.4165 98.4339H35.4165C35.4165 98.9663 35.4567 99.49 35.5343 100.002L37.5117 99.7019ZM37.4165 98.4339C37.4165 95.3744 39.8967 92.8942 42.9562 92.8942V90.8942C38.7922 90.8942 35.4165 94.2699 35.4165 98.4339H37.4165ZM42.9562 90.8942H42.0241V92.8942H42.9562V90.8942ZM43.0241 91.8942V82.8835H41.0241V91.8942H43.0241ZM42.0241 81.8835L11.4102 81.8836L11.4102 83.8836L42.0241 83.8835V81.8835ZM11.4102 81.8836C9.20102 81.8836 7.41016 80.0927 7.41016 77.8836H5.41016C5.41016 81.1973 8.09645 83.8836 11.4102 83.8836V81.8836ZM7.41016 77.8836V25.3551H5.41016V77.8836H7.41016ZM7.41016 25.3551C7.41016 23.1459 9.20102 21.3551 11.4102 21.3551V19.3551C8.09645 19.3551 5.41016 22.0414 5.41016 25.3551H7.41016ZM11.4102 21.3551H19.3355V19.3551H11.4102V21.3551ZM18.3355 9.53613V20.3551H20.3355V9.53613H18.3355Z" fill="#FCD34D"/>
<rect x="35.376" y="78.3477" width="21.84" height="9.01064" stroke="#1E1E1E" stroke-width="2"/>
<line x1="2" y1="61.3462" x2="90.5925" y2="61.3462" stroke="#1E1E1E" stroke-width="2" stroke-linecap="round"/>
<path fill-rule="evenodd" clip-rule="evenodd" d="M28.9619 93.9528C28.9619 89.7887 32.3376 86.4131 36.5017 86.4131H57.0359C61.2 86.4131 64.5756 89.7887 64.5756 93.9528C64.5756 94.4338 64.5429 94.9072 64.4796 95.3708H62.4561C62.4561 95.3707 62.4561 95.3706 62.4562 95.3705H31.0814C31.0814 95.3706 31.0814 95.3707 31.0814 95.3708H29.058C28.9946 94.9072 28.9619 94.4338 28.9619 93.9528ZM30.9922 93.3705H62.5454C62.2544 90.5847 59.8988 88.4131 57.0359 88.4131H36.5017C33.6388 88.4131 31.2832 90.5847 30.9922 93.3705Z" fill="#1E1E1E"/>
<circle cx="47.4797" cy="70.3474" r="2.85667" stroke="#1E1E1E" stroke-width="2"/>
<path fill-rule="evenodd" clip-rule="evenodd" d="M17.4746 0C14.7132 0 12.4746 2.23858 12.4746 5V60.9755H14.4746V5C14.4746 3.34315 15.8178 2 17.4746 2H75.3681C77.0249 2 78.3681 3.34315 78.3681 5V60.9755H80.3681V5C80.3681 2.23858 78.1295 0 75.3681 0H17.4746Z" fill="#1E1E1E"/>
<path fill-rule="evenodd" clip-rule="evenodd" d="M79.3702 14.8193H83.0275V14.9544C83.4435 15.0294 83.759 15.3932 83.759 15.8308C83.759 16.2683 83.4435 16.6322 83.0275 16.7072V16.8193H79.3702V14.8193ZM86.5925 16.8193H86.5118V16.7095C86.4645 16.7173 86.4159 16.7213 86.3665 16.7213C85.8746 16.7213 85.4759 16.3226 85.4759 15.8308C85.4759 15.3389 85.8746 14.9402 86.3665 14.9402C86.4159 14.9402 86.4645 14.9443 86.5118 14.952V14.8193H86.5925C89.9062 14.8193 92.5925 17.5056 92.5925 20.8193V73.3478C92.5925 76.6615 89.9062 79.3478 86.5925 79.3478H20.3934V79.238L20.3779 79.2381C19.8861 79.2381 19.4874 78.8394 19.4874 78.3476C19.4874 77.8557 19.8861 77.457 20.3779 77.457L20.3934 77.4571V77.3478H86.5925C88.8016 77.3478 90.5925 75.557 90.5925 73.3478V20.8193C90.5925 18.6102 88.8016 16.8193 86.5925 16.8193ZM13.5954 77.3478H6C3.79086 77.3478 2 75.557 2 73.3478V20.8193C2 18.6102 3.79086 16.8193 6 16.8193H13.4767V14.8193H6C2.68629 14.8193 0 17.5056 0 20.8193V73.3478C0 76.6615 2.68629 79.3478 6 79.3478H13.5954V79.2346C14.0502 79.1945 14.4067 78.8127 14.4067 78.3476C14.4067 77.8824 14.0502 77.5006 13.5954 77.4605V77.3478Z" fill="#1E1E1E"/>
<rect x="20.2178" y="29.2354" width="26.2039" height="26.2696" rx="1" stroke="#1E1E1E" stroke-width="2"/>
<path d="M20.3945 46.0117C21.1446 45.3728 22.8707 44.3096 25.6579 44.3096C29.2899 44.3096 31.9604 49.6891 36.0552 49.6891C40.15 49.6891 42.5648 46.9315 45.5936 46.9315" stroke="#1E1E1E" stroke-width="2"/>
<circle cx="37.2314" cy="38.4101" r="3.23237" stroke="#1E1E1E" stroke-width="2"/>
<line x1="52.75" y1="30.6934" x2="73.4925" y2="30.6934" stroke="#1E1E1E" stroke-width="2" stroke-linecap="round"/>
<line x1="38.2314" y1="9.21533" x2="62.8826" y2="9.21533" stroke="#1E1E1E" stroke-width="2" stroke-linecap="round"/>
<line x1="38.2314" y1="15.3174" x2="49.5577" y2="15.3174" stroke="#1E1E1E" stroke-width="2" stroke-linecap="round"/>
<line x1="29.3213" y1="22.5176" x2="78.384" y2="22.5176" stroke="#1E1E1E" stroke-width="2" stroke-linecap="round"/>
<line x1="14.9238" y1="22.5176" x2="22.2519" y2="22.5176" stroke="#1E1E1E" stroke-width="2" stroke-linecap="round"/>
<line x1="52.75" y1="36.9224" x2="73.4925" y2="36.9224" stroke="#1E1E1E" stroke-width="2" stroke-linecap="round"/>
<line x1="52.75" y1="43.1514" x2="73.4925" y2="43.1514" stroke="#1E1E1E" stroke-width="2" stroke-linecap="round"/>
<line x1="52.75" y1="49.3804" x2="73.4925" y2="49.3804" stroke="#1E1E1E" stroke-width="2" stroke-linecap="round"/>
<line x1="52.75" y1="55.6094" x2="62.1218" y2="55.6094" stroke="#1E1E1E" stroke-width="2" stroke-linecap="round"/>
<path d="M24.0932 7.87793C24.4781 7.21126 25.4404 7.21126 25.8253 7.87793L29.6947 14.58C30.0796 15.2467 29.5985 16.08 28.8287 16.08H21.0898C20.32 16.08 19.8389 15.2467 20.2238 14.58L24.0932 7.87793Z" stroke="#1E1E1E" stroke-width="2"/>
</svg>
