<svg width="114" height="100" viewBox="0 0 114 100" fill="none" xmlns="http://www.w3.org/2000/svg">
<rect x="5.7373" y="5.15576" width="8.97863" height="8.97863" rx="1" fill="#F9CB61" stroke="#FCD34D" stroke-width="2"/>
<rect x="54.7432" y="5.15576" width="8.97863" height="8.97863" rx="1" fill="#F9CB61" stroke="#FCD34D" stroke-width="2"/>
<rect x="103.75" y="5.15576" width="8.97863" height="8.97863" rx="1" fill="#F9CB61" stroke="#FCD34D" stroke-width="2"/>
<line x1="14.6416" y1="8.64502" x2="54.7912" y2="8.64502" stroke="#FCD34D" stroke-width="2" stroke-linecap="round"/>
<line x1="62.7891" y1="8.64502" x2="104.656" y2="8.64502" stroke="#FCD34D" stroke-width="2" stroke-linecap="round"/>
<circle cx="25.2683" cy="48.3425" r="5.0427" fill="#F9CB61" stroke="#FCD34D" stroke-width="2"/>
<path d="M92.4115 43.2998C92.4115 26.4923 80.0603 12.5695 63.9392 10.1127M25.2676 43.2998C25.2676 37.2478 26.869 31.5697 29.6712 26.6663L33.3782 21.4175C38.7196 15.2081 46.2935 10.9744 54.8543 9.96191" stroke="#FCD34D" stroke-width="2" stroke-linecap="round" stroke-linejoin="round"/>
<circle cx="92.4109" cy="48.3425" r="5.0427" fill="#F9CB61" stroke="#FCD34D" stroke-width="2"/>
<path d="M45.8527 97.222L45.4352 84.5922C45.4164 84.0253 45.407 83.7418 45.5097 83.5237C45.604 83.3236 45.7619 83.1604 45.9588 83.0596C46.1734 82.9497 46.457 82.9497 47.0243 82.9497H70.6239C71.1912 82.9497 71.4749 82.9497 71.6894 83.0596C71.8863 83.1604 72.0443 83.3236 72.1385 83.5237C72.2412 83.7418 72.2318 84.0253 72.2131 84.5922L71.7956 97.222C71.7779 97.7561 71.7691 98.0232 71.6612 98.2272C71.562 98.4145 71.406 98.5654 71.2155 98.6583C71.0081 98.7595 70.7409 98.7595 70.2064 98.7595H47.4418C46.9074 98.7595 46.6402 98.7595 46.4327 98.6583C46.2422 98.5654 46.0862 98.4145 45.9871 98.2272C45.8791 98.0232 45.8703 97.7561 45.8527 97.222Z" fill="#F9CB61" stroke="#FCD34D" stroke-width="2" stroke-linecap="round"/>
<rect x="41.5254" y="69.749" width="34.6253" height="14.6035" rx="2" fill="#F9CB61" stroke="#FCD34D" stroke-width="2"/>
<path d="M36.852 59.2874L46.2976 69.836H71.515C74.166 67.0556 79.0155 61.1496 80.6449 59.2874C82.2743 57.4252 81.5922 54.3278 80.6449 53.0611C78.4745 50.1591 75.5044 46.1086 72.5399 42.0735L69.1784 37.5054C65.5746 32.6205 62.4761 28.478 61.525 27.4515C59.5364 25.305 57.1149 25.8498 55.8026 27.4515C54.4903 29.0531 38.3021 51.0309 36.852 53.0611C35.6004 54.8134 35.4916 57.4601 36.852 59.2874Z" fill="#F9CB61" stroke="#FCD34D" stroke-width="2" stroke-linecap="round" stroke-linejoin="round"/>
<rect x="1" y="1" width="8.97863" height="8.97863" rx="1" stroke="#1E1E1E" stroke-width="2"/>
<rect x="50.0059" y="1" width="8.97863" height="8.97863" rx="1" stroke="#1E1E1E" stroke-width="2"/>
<rect x="99.0137" y="1" width="8.97863" height="8.97863" rx="1" stroke="#1E1E1E" stroke-width="2"/>
<line x1="10.9541" y1="4.48926" x2="49.0059" y2="4.48926" stroke="#1E1E1E" stroke-width="2" stroke-linecap="round"/>
<line x1="59.9609" y1="4.48926" x2="98.0127" y2="4.48926" stroke="#1E1E1E" stroke-width="2" stroke-linecap="round"/>
<circle cx="20.531" cy="44.1872" r="5.0427" stroke="#1E1E1E" stroke-width="2"/>
<path d="M87.6742 39.1441C87.6742 22.3365 75.323 8.41369 59.2019 5.95692M20.5303 39.1441C20.5303 33.092 22.1317 27.414 24.9339 22.5106M50.117 5.80615C41.5562 6.81867 33.9823 11.0524 28.6409 17.2617" stroke="#1E1E1E" stroke-width="2" stroke-linecap="round" stroke-linejoin="round"/>
<circle cx="87.6736" cy="44.1872" r="5.0427" stroke="#1E1E1E" stroke-width="2"/>
<path d="M50.7371 23.7773V42.0899C48.9828 43.1845 47.8154 45.132 47.8154 47.3521C47.8154 50.7752 50.5903 53.5501 54.0134 53.5501C57.4364 53.5501 60.2113 50.7752 60.2113 47.3521C60.2113 45.132 59.044 43.1845 57.2896 42.0899V23.7773" stroke="#1E1E1E" stroke-width="2"/>
<rect x="36.7881" y="65.5938" width="34.6253" height="14.6035" rx="2" stroke="#1E1E1E" stroke-width="2"/>
<line x1="40.4296" y1="80.9234" x2="40.9681" y2="94.8169" stroke="#1E1E1E" stroke-width="2" stroke-linecap="round"/>
<line x1="1" y1="-1" x2="14.9039" y2="-1" transform="matrix(-0.0387306 0.99925 0.99925 0.0387306 68.7793 79.9629)" stroke="#1E1E1E" stroke-width="2" stroke-linecap="round"/>
<path fill-rule="evenodd" clip-rule="evenodd" d="M50.6064 88.9649C50.6064 88.0543 50.8608 87.6066 51.07 87.3908C51.287 87.167 51.5654 87.0781 51.8143 87.0781L53.1094 87.0781L54.0852 87.0781H54.0859L55.0617 87.0781L56.3568 87.0781C56.6058 87.0781 56.8842 87.167 57.1011 87.3908C57.3103 87.6066 57.5647 88.0543 57.5647 88.9649V93.4444C57.5647 93.9967 58.0124 94.4444 58.5647 94.4444C59.117 94.4444 59.5647 93.9967 59.5647 93.4444V88.9649C59.5647 87.6708 59.1929 86.6752 58.5371 85.9987C57.8891 85.3303 57.0635 85.0781 56.3568 85.0781L55.0617 85.0781L54.0859 85.0781H54.0852L53.1094 85.0781L51.8143 85.0781C51.1076 85.0781 50.2821 85.3303 49.634 85.9987C48.9782 86.6752 48.6064 87.6708 48.6064 88.9649V93.4444C48.6064 93.9967 49.0542 94.4444 49.6064 94.4444C50.1587 94.4444 50.6064 93.9967 50.6064 93.4444V88.9649Z" fill="#1E1E1E"/>
<path d="M41.5603 65.6802L32.1147 55.1317C30.7543 53.3043 30.8631 50.6576 32.1147 48.9054C33.5648 46.8752 49.753 24.8973 51.0653 23.2957C52.3776 21.6941 54.7991 21.1492 56.7877 23.2957C57.7388 24.3223 60.8373 28.4648 64.4411 33.3497M66.7777 65.6802C69.4287 62.8998 74.2782 56.9939 75.9076 55.1317C77.537 53.2695 76.8549 50.172 75.9076 48.9054C73.7372 46.0033 70.7671 41.9528 67.8026 37.9177" stroke="#1E1E1E" stroke-width="2" stroke-linecap="round" stroke-linejoin="round"/>
</svg>
