<svg width="115" height="98" viewBox="0 0 115 98" fill="none" xmlns="http://www.w3.org/2000/svg">
<path d="M6.4502 48.8674C6.4502 57.6244 12.8454 64.0449 16.2915 65.9707C44.1896 66.0741 104.546 66.0128 104.546 66.0128C104.546 66.0128 113.927 61.2555 113.927 47.5761C113.927 36.6378 104.763 31.7041 99.9928 29.1356L99.9858 29.1319C98.4295 15.4838 85.1049 2.34419 67.8939 1.789C49.3378 1.19041 39.2971 16.5776 39.2971 16.5776C36.5453 14.8696 29.3686 14.3692 25.0269 18.0036C20.8598 21.492 19.7795 24.984 19.7795 29.6571C14.733 30.7739 6.4502 37.9211 6.4502 48.8674Z" fill="#F9CB61" stroke="#FCD34D" stroke-width="2" stroke-linecap="round" stroke-linejoin="round"/>
<path d="M15.9761 52.638C15.9761 41.4008 24.9023 34.5176 33.1072 34.5176H69.7686H75.8575H86.7222C94.9271 34.5176 103.853 41.4008 103.853 52.638C103.853 63.8753 103.88 76.4038 103.88 84.3866C103.88 90.3142 99.5914 96.1899 93.3111 96.1899C86.7045 96.1899 82.7318 91.6508 81.8107 88.1968C80.9935 85.1325 79.6661 74.0738 76.1614 71.6168C76.2125 71.9444 76.239 72.2801 76.239 72.6221C76.239 76.1972 73.3408 79.0954 69.7657 79.0954C66.1905 79.0954 63.2923 76.1972 63.2923 72.6221C63.2923 72.1088 63.352 71.6096 63.4649 71.1308H55.7378C55.8507 71.6096 55.9104 72.1088 55.9104 72.6221C55.9104 76.1972 53.0122 79.0954 49.4371 79.0954C45.862 79.0954 42.9638 76.1972 42.9638 72.6221C42.9638 72.4941 42.9675 72.367 42.9748 72.2409C39.983 75.5582 38.7796 85.3434 38.0187 88.1968C37.0977 91.6508 33.125 96.1899 26.5184 96.1899C20.238 96.1899 15.9492 90.3142 15.9492 84.3866C15.9492 76.4038 15.9761 63.8753 15.9761 52.638Z" fill="#F9CB61"/>
<path d="M76.0664 71.1308C76.1041 71.2906 76.1358 71.4527 76.1614 71.6168M76.1614 71.6168C76.2125 71.9444 76.239 72.2801 76.239 72.6221C76.239 76.1972 73.3408 79.0954 69.7657 79.0954C66.1905 79.0954 63.2923 76.1972 63.2923 72.6221C63.2923 72.1088 63.352 71.6096 63.4649 71.1308H55.7378C55.8507 71.6096 55.9104 72.1088 55.9104 72.6221C55.9104 76.1972 53.0122 79.0954 49.4371 79.0954C45.862 79.0954 42.9638 76.1972 42.9638 72.6221C42.9638 72.4941 42.9675 72.367 42.9748 72.2409C39.983 75.5582 38.7796 85.3434 38.0187 88.1968C37.0977 91.6508 33.125 96.1899 26.5184 96.1899C20.238 96.1899 15.9492 90.3142 15.9492 84.3866C15.9492 76.4038 15.9761 63.8753 15.9761 52.638C15.9761 41.4008 24.9023 34.5176 33.1072 34.5176H69.7686H75.8575H86.7222C94.9271 34.5176 103.853 41.4008 103.853 52.638C103.853 63.8753 103.88 76.4038 103.88 84.3866C103.88 90.3142 99.5914 96.1899 93.311 96.1899C86.7045 96.1899 82.7318 91.6508 81.8107 88.1968C80.9935 85.1325 79.6661 74.0738 76.1614 71.6168Z" stroke="#FCD34D" stroke-width="2" stroke-linecap="round"/>
<path d="M46.8711 44.6082C48.8459 42.3456 51.7511 40.916 54.9902 40.916C58.2292 40.916 61.1344 42.3456 63.1092 44.6082" stroke="#1E1E1E" stroke-width="2" stroke-linecap="round"/>
<path d="M38.0529 71.0309C38.0456 71.1571 38.0419 71.2841 38.0419 71.4121C38.0419 74.9872 40.9401 77.8855 44.5152 77.8855C48.0904 77.8855 50.9886 74.9872 50.9886 71.4121C50.9886 70.8989 50.9288 70.3996 50.816 69.9209M38.0529 71.0309C35.0611 74.3482 33.8578 84.1334 33.0969 86.9868C32.1758 90.4409 28.2031 94.98 21.5965 94.98C15.3162 94.98 11.0273 89.1043 11.0273 83.1766C11.0273 75.1939 11.0542 62.6653 11.0542 51.4281C11.0542 40.1908 19.9804 33.3076 28.1853 33.3076H64.8467M38.0529 71.0309C38.1022 70.1817 38.3152 69.3764 38.6609 68.6462M50.816 69.9209C50.1425 67.0646 47.5771 64.9388 44.5152 64.9388C44.1599 64.9388 43.8113 64.9674 43.4715 65.0225M50.816 69.9209H58.543M58.543 69.9209C58.4302 70.3996 58.3704 70.8989 58.3704 71.4121C58.3704 74.9872 61.2687 77.8855 64.8438 77.8855C68.4189 77.8855 71.3171 74.9872 71.3171 71.4121C71.3171 71.0702 71.2906 70.7344 71.2395 70.4068M58.543 69.9209C59.2165 67.0646 61.7819 64.9388 64.8438 64.9388C67.9057 64.9388 70.4711 67.0646 71.1445 69.9209C71.1822 70.0806 71.214 70.2427 71.2395 70.4068M71.2395 70.4068C74.7443 72.8639 76.0717 83.9225 76.8888 86.9868C77.8099 90.4409 81.7826 94.98 88.3892 94.98C94.6695 94.98 98.9583 89.1043 98.9583 83.1766C98.9583 75.1939 98.9314 62.6653 98.9314 51.4281C98.9314 40.1908 90.0052 33.3076 81.8004 33.3076H70.9356" stroke="#1E1E1E" stroke-width="2" stroke-linecap="round"/>
<circle cx="80.0003" cy="61.367" r="3.57255" stroke="#1E1E1E" stroke-width="2"/>
<circle cx="88.5159" cy="53.0413" r="3.57255" stroke="#1E1E1E" stroke-width="2"/>
<circle cx="80.0003" cy="44.4886" r="3.57255" stroke="#1E1E1E" stroke-width="2"/>
<circle cx="71.5843" cy="53.0413" r="3.57255" stroke="#1E1E1E" stroke-width="2"/>
<path d="M51.6406 48.7561C52.4571 47.8231 53.6566 47.2339 54.9938 47.2339C56.3309 47.2339 57.5305 47.8231 58.3469 48.7561" stroke="#1E1E1E" stroke-width="2" stroke-linecap="round"/>
<line x1="47.75" y1="58.2256" x2="51.6209" y2="58.2256" stroke="#1E1E1E" stroke-width="2" stroke-linecap="round"/>
<line x1="57.959" y1="58.2256" x2="61.8299" y2="58.2256" stroke="#1E1E1E" stroke-width="2" stroke-linecap="round"/>
<path d="M30.4431 41.5977H28.4903C27.1793 41.5977 26.1165 42.6604 26.1165 43.9715V48.9182C26.1165 49.4705 25.6688 49.9182 25.1165 49.9182L20.1697 49.9182C18.8587 49.9182 17.7959 50.981 17.7959 52.292V54.2449C17.7959 55.5559 18.8587 56.6187 20.1697 56.6187H25.1165C25.6688 56.6187 26.1165 57.0664 26.1165 57.6187V62.5654C26.1165 63.8765 27.1793 64.9392 28.4903 64.9392H30.4431C31.7541 64.9392 32.8169 63.8765 32.8169 62.5654V57.6187C32.8169 57.0664 33.2646 56.6187 33.8169 56.6187H38.7637C40.0747 56.6187 41.1375 55.5559 41.1375 54.2449V52.292C41.1375 50.981 40.0747 49.9182 38.7637 49.9182H33.8169C33.2646 49.9182 32.8169 49.4705 32.8169 48.9182V43.9715C32.8169 42.6604 31.7541 41.5977 30.4431 41.5977Z" stroke="#1E1E1E" stroke-width="2"/>
<path d="M10.8413 65.1987C7.39524 63.273 1 56.8524 1 48.0954C1 37.1491 9.28279 30.0019 14.3293 28.8851C14.3293 26.7644 14.5518 24.887 15.1843 23.1427M19.5767 17.2317C23.9184 13.5972 31.0951 14.0976 33.8469 15.8056C33.8469 15.8056 43.8876 0.418435 62.4437 1.01702C79.6547 1.57222 92.9793 14.7118 94.5356 28.3599C99.3041 30.9273 108.476 35.8605 108.476 46.8041C108.476 60.4836 99.0955 65.2409 99.0955 65.2409" stroke="#1E1E1E" stroke-width="2" stroke-linecap="round" stroke-linejoin="round"/>
</svg>
