<svg width="61" height="100" viewBox="0 0 61 100" fill="none" xmlns="http://www.w3.org/2000/svg">
<path d="M55.2175 7.54883H11.0264C8.81723 7.54883 7.02637 9.33969 7.02637 11.5488V58.8924V66.1161V94.7598C7.02637 96.9689 8.81722 98.7598 11.0264 98.7598H55.2175C57.4266 98.7598 59.2175 96.9689 59.2175 94.7598V11.5488C59.2175 9.33969 57.4266 7.54883 55.2175 7.54883Z" fill="#F9CB61" stroke="#FCD34D" stroke-width="2" stroke-linecap="round"/>
<path d="M1 52.3435V5C1 2.79087 2.79086 1 5 1H49.1911C51.4002 1 53.1911 2.79086 53.1911 5V88.2109C53.1911 90.4201 51.4002 92.2109 49.1911 92.2109H5C2.79086 92.2109 1 90.4201 1 88.2109V59.5672" stroke="#1E1E1E" stroke-width="2" stroke-linecap="round"/>
<line x1="2" y1="13.145" x2="52.1911" y2="13.145" stroke="#1E1E1E" stroke-width="2" stroke-linecap="round"/>
<line x1="2" y1="80.0962" x2="52.1911" y2="80.0962" stroke="#1E1E1E" stroke-width="2" stroke-linecap="round"/>
<line x1="24.9521" y1="85.5186" x2="29.1587" y2="85.5186" stroke="#1E1E1E" stroke-width="3" stroke-linecap="round"/>
<line x1="30.46" y1="56.2051" x2="42.1851" y2="56.2051" stroke="#1E1E1E" stroke-width="2" stroke-linecap="round"/>
<line x1="36.3496" y1="50.1675" x2="36.3496" y2="61.8926" stroke="#1E1E1E" stroke-width="2" stroke-linecap="round"/>
<line x1="26.6953" y1="6.89844" x2="33.8299" y2="6.89844" stroke="#1E1E1E" stroke-width="3" stroke-linecap="round"/>
<line x1="48.1182" y1="18.0063" x2="48.1182" y2="20.1756" stroke="#1E1E1E" stroke-width="3" stroke-linecap="round"/>
<line x1="43.8291" y1="18.7339" x2="43.8291" y2="20.1761" stroke="#1E1E1E" stroke-width="3" stroke-linecap="round"/>
<line x1="39.6846" y1="19.6792" x2="39.6846" y2="20.1762" stroke="#1E1E1E" stroke-width="3" stroke-linecap="round"/>
<circle cx="21.3384" cy="7.15533" r="1.86383" fill="#1E1E1E"/>
<rect x="11.5049" y="30.8071" width="12.3401" height="12.3401" rx="2" stroke="#1E1E1E" stroke-width="2"/>
<rect x="11.5049" y="49.8599" width="12.3401" height="12.3401" rx="2" stroke="#1E1E1E" stroke-width="2"/>
<path d="M42.6038 33.8922V32.8071C42.6038 31.7026 41.7083 30.8071 40.6038 30.8071H32.2637C31.1591 30.8071 30.2637 31.7026 30.2637 32.8071V41.1472C30.2637 42.2518 31.1591 43.1472 32.2637 43.1472H40.6038C41.7083 43.1472 42.6038 42.2518 42.6038 41.1472V39.7776" stroke="#1E1E1E" stroke-width="2" stroke-linecap="round"/>
</svg>
