<svg width="44" height="44" viewBox="0 0 44 44" fill="none" xmlns="http://www.w3.org/2000/svg">
<path d="M29.7 22L19.8 12.1L16.72 15.235L23.485 22L16.72 28.765L19.8 31.9L29.7 22ZM44 22C44 25.0433 43.4221 27.9033 42.2664 30.58C41.1121 33.2567 39.545 35.585 37.565 37.565C35.585 39.545 33.2567 41.1121 30.58 42.2664C27.9033 43.4221 25.0433 44 22 44C18.9567 44 16.0967 43.4221 13.42 42.2664C10.7433 41.1121 8.415 39.545 6.435 37.565C4.455 35.585 2.88713 33.2567 1.7314 30.58C0.577133 27.9033 0 25.0433 0 22C0 18.9567 0.577133 16.0967 1.7314 13.42C2.88713 10.7433 4.455 8.415 6.435 6.435C8.415 4.455 10.7433 2.88787 13.42 1.7336C16.0967 0.577866 18.9567 0 22 0C25.0433 0 27.9033 0.577866 30.58 1.7336C33.2567 2.88787 35.585 4.455 37.565 6.435C39.545 8.415 41.1121 10.7433 42.2664 13.42C43.4221 16.0967 44 18.9567 44 22Z" fill="white"/>
</svg>
