<svg width="44" height="45" viewBox="0 0 44 45" fill="none" xmlns="http://www.w3.org/2000/svg">
<path d="M14.3 22.82L24.2 32.7165L27.28 29.5826L20.515 22.82L27.28 16.0575L24.2 12.9236L14.3 22.82ZM0 22.82C0 19.7778 0.577866 16.9188 1.7336 14.2431C2.88787 11.5674 4.455 9.23988 6.435 7.26059C8.415 5.28129 10.7433 3.71472 13.42 2.56086C16.0967 1.40554 18.9567 0.827881 22 0.827881C25.0433 0.827881 27.9033 1.40554 30.58 2.56086C33.2567 3.71472 35.585 5.28129 37.565 7.26059C39.545 9.23988 41.1129 11.5674 42.2686 14.2431C43.4229 16.9188 44 19.7778 44 22.82C44 25.8623 43.4229 28.7213 42.2686 31.397C41.1129 34.0727 39.545 36.4002 37.565 38.3795C35.585 40.3588 33.2567 41.9254 30.58 43.0792C27.9033 44.2345 25.0433 44.8122 22 44.8122C18.9567 44.8122 16.0967 44.2345 13.42 43.0792C10.7433 41.9254 8.415 40.3588 6.435 38.3795C4.455 36.4002 2.88787 34.0727 1.7336 31.397C0.577866 28.7213 0 25.8623 0 22.82Z" fill="white"/>
</svg>
