<svg width="32" height="32" viewBox="0 0 32 32" fill="none" xmlns="http://www.w3.org/2000/svg">
<path d="M14.8564 3.20605C15.3742 2.34208 16.6258 2.34208 17.1436 3.20605L18.584 5.60938C19.1878 6.61703 20.38 7.11064 21.5195 6.8252L24.2383 6.14453C25.2153 5.89969 26.1003 6.78471 25.8555 7.76172L25.1748 10.4805C24.8894 11.62 25.383 12.8122 26.3906 13.416L28.7939 14.8564C29.6579 15.3742 29.6579 16.6258 28.7939 17.1436L26.3906 18.584C25.383 19.1878 24.8894 20.38 25.1748 21.5195L25.8555 24.2383C26.1003 25.2153 25.2153 26.1003 24.2383 25.8555L21.5195 25.1748C20.38 24.8894 19.1878 25.383 18.584 26.3906L17.1436 28.7939C16.6258 29.6579 15.3742 29.6579 14.8564 28.7939L13.416 26.3906C12.8122 25.383 11.62 24.8894 10.4805 25.1748L7.76172 25.8555C6.78471 26.1003 5.89969 25.2153 6.14453 24.2383L6.8252 21.5195C7.11064 20.38 6.61703 19.1878 5.60938 18.584L3.20605 17.1436C2.34208 16.6258 2.34208 15.3742 3.20605 14.8564L5.60938 13.416C6.61703 12.8122 7.11064 11.62 6.8252 10.4805L6.14453 7.76172C5.89969 6.78471 6.78471 5.89969 7.76172 6.14453L10.4805 6.8252C11.62 7.11064 12.8122 6.61703 13.416 5.60938L14.8564 3.20605Z" fill="url(#paint0_linear_832_889)" stroke="white" stroke-width="1.33333"/>
<path d="M20.8979 13.773L14.8979 19.773C14.8457 19.8254 14.7836 19.867 14.7152 19.8954C14.6468 19.9238 14.5735 19.9384 14.4995 19.9384C14.4255 19.9384 14.3522 19.9238 14.2838 19.8954C14.2154 19.867 14.1533 19.8254 14.1011 19.773L11.4761 17.148C11.4237 17.0957 11.3822 17.0335 11.3539 16.9652C11.3256 16.8968 11.311 16.8235 11.311 16.7496C11.311 16.6756 11.3256 16.6023 11.3539 16.5339C11.3822 16.4656 11.4237 16.4034 11.4761 16.3511C11.5284 16.2988 11.5905 16.2573 11.6589 16.229C11.7272 16.2006 11.8005 16.1861 11.8745 16.1861C11.9485 16.1861 12.0218 16.2006 12.0901 16.229C12.1585 16.2573 12.2206 16.2988 12.2729 16.3511L14.5 18.5781L20.102 12.977C20.2077 12.8714 20.351 12.812 20.5004 12.812C20.6499 12.812 20.7932 12.8714 20.8989 12.977C21.0046 13.0827 21.0639 13.226 21.0639 13.3755C21.0639 13.5249 21.0046 13.6683 20.8989 13.7739L20.8979 13.773Z" fill="white"/>
<defs>
<linearGradient id="paint0_linear_832_889" x1="16.3137" y1="1.47506e-06" x2="17.0494" y2="31.9686" gradientUnits="userSpaceOnUse">
<stop stop-color="#0B79FF"/>
<stop offset="1" stop-color="#5FA7FD"/>
</linearGradient>
</defs>
</svg>
